# xmcd
#
# Track frame offsets:
#	150
#	19800
#	34962
#	54715
#	78302
#	92555
#	106062
#	116735
#	128260
#	161645
#	177802
#	199527
#	213885
#	231615
#	252865
#
# Disc length: 3539
#
# Revision: 3
# Processed by: cddbd v1.5.1PL0 Copyright (c) Steve Scherf et al.
# Submitted via: ExactAudioCopy v0.95a4
# Normalized: r2:TDELIM( - )
#
DISCID=bf0dd10f
DTITLE=Various Artist - Rhythm and Soul n°10
DYEAR=2000
DGENRE=Soul
TTITLE0=Was Not Was - Walk The Dinosaur
TTITLE1=Sylvvester - You Make Me Feel
TTITLE2=Kool and the Gang - Fresh
TTITLE3=Imagination - Music and Lights
TTITLE4=The Spinners - I'll be Around
TTITLE5=The Four Tops - Bernadette
TTITLE6=Wilson Pickett - Land of 1000 Dances
TTITLE7=Stevie Wonder - Signed, Sealed, Delivered, I'm Yours
TTITLE8=Grace Jones - La Vie En Rose
TTITLE9=Charles and Eddie - Would I Lie To You
TTITLE10=Tony! Toni! Tone! - It Never Rains (In Southern California)
TTITLE11=Marvin Gaye - Mercy Mercy Me
TTITLE12=Peaches and Herb - Reunited
TTITLE13=Patti Labelle - If Only You Knew
TTITLE14=James Brown - It's a Man's, Man's, Man's World
EXTD=YEAR: 1999
EXTT0=
EXTT1=
EXTT2=
EXTT3=
EXTT4=
EXTT5=
EXTT6=
EXTT7=
EXTT8=
EXTT9=
EXTT10=
EXTT11=
EXTT12=
EXTT13=
EXTT14=
PLAYORDER=
